<svg width="20" height="20" viewBox="0 0 20 20" fill="none" xmlns="http://www.w3.org/2000/svg">
<path d="M17.8416 9.65008L10.3416 2.15008C10.0416 1.85008 9.62496 1.66675 9.16663 1.66675H3.33329C2.41663 1.66675 1.66663 2.41675 1.66663 3.33341V9.16675C1.66663 9.62508 1.84996 10.0417 2.15829 10.3501L9.65829 17.8501C9.95829 18.1501 10.375 18.3334 10.8333 18.3334C11.2916 18.3334 11.7083 18.1501 12.0083 17.8417L17.8416 12.0084C18.15 11.7084 18.3333 11.2917 18.3333 10.8334C18.3333 10.3751 18.1416 9.95008 17.8416 9.65008ZM10.8333 16.6751L3.33329 9.16675V3.33341H9.16663V3.32508L16.6666 10.8251L10.8333 16.6751Z" fill="#666666"/>
<path d="M5.41663 6.66675C6.10698 6.66675 6.66663 6.1071 6.66663 5.41675C6.66663 4.72639 6.10698 4.16675 5.41663 4.16675C4.72627 4.16675 4.16663 4.72639 4.16663 5.41675C4.16663 6.1071 4.72627 6.66675 5.41663 6.66675Z" fill="#666666"/>
</svg>
